Coordinates
version=1
nRows=4
nColumns=63
inDegrees=yes

Units are S.I. units (second, meters, Newtons, ...)
If the header above contains a line with 'inDegrees', this indicates whether rotational values are in degrees (yes) or radians (no).

endheader
time	pelvis_tilt	pelvis_list	pelvis_rotation	pelvis_tx	pelvis_ty	pelvis_tz	hip_flexion_r	hip_adduction_r	hip_rotation_r	knee_angle_r	knee_angle_r_beta	ankle_angle_r	subtalar_angle_r	mtp_angle_r	hip_flexion_l	hip_adduction_l	hip_rotation_l	knee_angle_l	knee_angle_l_beta	ankle_angle_l	subtalar_angle_l	mtp_angle_l	L5_S1_Flex_Ext	L5_S1_Lat_Bending	L5_S1_axial_rotation	L4_L5_Flex_Ext	L4_L5_Lat_Bending	L4_L5_axial_rotation	L3_L4_Flex_Ext	L3_L4_Lat_Bending	L3_L4_axial_rotation	L2_L3_Flex_Ext	L2_L3_Lat_Bending	L2_L3_axial_rotation	L1_L2_Flex_Ext	L1_L2_Lat_Bending	L1_L2_axial_rotation	L1_T12_Flex_Ext	L1_T12_Lat_Bending	L1_T12_axial_rotation	Abs_r3	Abs_r2	Abs_r1	Abs_t1	Abs_t2	neck_flexion	neck_bending	neck_rotation	arm_flex_r	arm_add_r	arm_rot_r	elbow_flex_r	pro_sup_r	wrist_flex_r	wrist_dev_r	arm_flex_l	arm_add_l	arm_rot_l	elbow_flex_l	pro_sup_l	wrist_flex_l	wrist_dev_l
      0.00000000	     -0.37023548	     -4.80913717	     96.14355140	      0.16802015	      0.99692761	      0.43093635	     -7.79103883	      2.46435861	      5.85691154	      0.52021007	      0.00907938	     30.64466080	    -11.56038159	      0.00000000	     -5.47609664	      0.53170806	     10.62168964	      2.83928948	      0.04955495	     33.68133007	    -12.23787601	      0.00000000	     -0.05321665	      0.13744815	      0.64123808	     -0.09882865	      0.18280604	      0.68131546	     -0.08742964	      0.33419144	      0.68131546	     -0.06082131	      0.33419144	      0.56108332	     -0.04941698	      0.28028427	      0.52100594	     -0.03040800	      0.21290719	      0.48092856	     -0.38012123	      1.55484100	      3.56637383	      0.00000000	      0.00000000	      9.18458190	     12.39122856	    -13.74125269	     15.42927791	    -14.43347516	     58.62992572	     66.75438344	      6.61232150	     -4.80737498	     -2.01348245	     25.28127715	     -6.42354048	     74.79084017	     52.82519084	      8.91769751	     -0.76157398	      4.22426207
      0.01694915	     -0.90486729	     -4.70006913	     95.56890261	      0.16937653	      0.99788859	      0.43001504	     -8.01228977	      1.79370913	      5.59969024	      0.52387148	      0.00914328	     31.10342718	    -10.40707280	      0.00000000	     -5.90004130	      0.99418316	     12.78548536	      1.81849625	      0.03173875	     33.49443050	    -13.73024069	      0.00000000	     -0.07105967	      0.06433606	      0.77911917	     -0.13196492	      0.08556697	      0.82781412	     -0.11674394	      0.15642671	      0.82781412	     -0.08121410	      0.15642671	      0.68172928	     -0.06598601	      0.13119410	      0.63303433	     -0.04060350	      0.09965656	      0.58433938	     -0.50757213	      0.72778243	      4.33322711	      0.00000000	      0.00000000	      8.95739684	     12.26472350	    -14.32945597	     14.27833713	    -13.46346093	     55.73022407	     66.27760363	     12.68489840	     -5.80272698	     -0.88053640	     24.89975598	     -6.07452988	     74.17351833	     51.78143375	     11.35611950	      0.41949093	      4.10804082
      0.03389831	     -1.29280038	     -4.61496706	     95.17485603	      0.17025338	      0.99862027	      0.42958049	     -8.18075166	      1.31593485	      5.70440646	      0.54824874	      0.00956875	     31.24537060	    -10.15108865	      0.00000000	     -6.05847663	      1.33703298	     13.28139648	      1.43925932	      0.02511981	     33.68278997	    -13.66960232	      0.00000000	     -0.08677386	      0.01632738	      0.81533966	     -0.16114774	      0.02171542	      0.86629839	     -0.14256078	      0.03969840	      0.86629839	     -0.09917385	      0.03969840	      0.71342221	     -0.08057821	      0.03329480	      0.66246348	     -0.04958259	      0.02529112	      0.61150475	     -0.61981703	      0.18469861	      4.53467461	      0.00000000	      0.00000000	      8.73338899	     12.32433967	    -14.21227138	     14.11617099	    -12.74577756	     54.95964961	     65.65790787	     13.06457494	     -6.23832401	     -1.10214718	     24.70396263	     -5.87371365	     74.11934322	     51.09064521	     11.72374270	      0.33130836	      3.96510234
      0.05084746	     -1.41319523	     -4.63562466	     94.85150678	      0.17095443	      0.99868784	      0.42874456	     -8.26961511	      1.13761733	      5.82294798	      0.55896628	      0.00975580	     31.36665159	     -9.95573975	      0.00000000	     -6.10697333	      1.40859104	     13.57466700	      1.26775442	      0.02212649	     33.89935116	    -13.63879636	      0.00000000	     -0.07924276	      0.00163783	      0.82509754	     -0.14716174	      0.00217831	      0.87666614	     -0.13018794	      0.00398221	      0.87666614	     -0.09056655	      0.00398221	      0.72196035	     -0.07358483	      0.00333985	      0.67039175	     -0.04527932	      0.00253699	      0.61882316	     -0.56602314	      0.01852741	      4.58894501	      0.00000000	      0.00000000	      8.83157711	     12.37888734	    -14.11667146	     14.03260493	    -12.30901026	     54.58117680	     65.10115834	     13.11134154	     -6.56943220	     -1.13752863	     24.50815687	     -5.81985145	     74.32755173	     50.71379219	     11.99649903	      0.28476652	      4.07013327
